# xmcd
#
# Track frame offsets:
#	150
#	11986
#	23860
#	33955
#	48102
#	61332
#	77142
#	91875
#	104656
#	117012
#	129719
#	140171
#	153415
#	165127
#	177342
#	188263
#
# Disc length: 2644 seconds
#
# Revision: 1
# Processed by: cddbd v1.5.2PL0 Copyright (c) Steve Scherf et al.
# Submitted via: audiograbber 1.83.01
#
DISCID=c70a5210
DTITLE=Sam Cooke - Hits Of The 50s (1960) 
DYEAR=1900
DGENRE=
TTITLE0=Hey There
TTITLE1=Mona Lisa
TTITLE2=Too Young
TTITLE3=The Great Pretender
TTITLE4=You, You, You
TTITLE5=Unchained Melody
TTITLE6=The Wayward Wind
TTITLE7=Secret Love
TTITLE8=The Song From Moulin Rouge
TTITLE9=I'm Walking Behind You
TTITLE10=Cry
TTITLE11=Venus
TTITLE12=Ee-Yi-Ee-Yi-Oh
TTITLE13=Teenage Sonata
TTITLE14=If You Were The Only Girl
TTITLE15=You Understand Me
EXTD=
EXTT0=
EXTT1=
EXTT2=
EXTT3=
EXTT4=
EXTT5=
EXTT6=
EXTT7=
EXTT8=
EXTT9=
EXTT10=
EXTT11=
EXTT12=
EXTT13=
EXTT14=
EXTT15=
PLAYORDER=
